<?xml version="1.0" encoding="UTF-8" standalone="no"?>
<!DOCTYPE svg PUBLIC "-//W3C//DTD SVG 1.1//EN"
 "http://www.w3.org/Graphics/SVG/1.1/DTD/svg11.dtd">
<!-- Generated by graphviz version 2.43.0 (0)
 -->
<!-- Title: %3 Pages: 1 -->
<svg width="2082pt" height="453pt"
 viewBox="0.00 0.00 2082.00 453.00" xmlns="http://www.w3.org/2000/svg" xmlns:xlink="http://www.w3.org/1999/xlink">
<g id="graph0" class="graph" transform="scale(1 1) rotate(0) translate(4 449)">
<title>%3</title>
<polygon fill="white" stroke="transparent" points="-4,4 -4,-449 2078,-449 2078,4 -4,4"/>
<g id="clust1" class="cluster">
<title>cluster_BackboneFlow</title>
<polygon fill="none" stroke="black" points="335,-145 335,-437 797,-437 797,-145 335,-145"/>
<text text-anchor="middle" x="566" y="-421.8" font-family="Times,serif" font-size="14.00">BackboneFlow</text>
</g>
<g id="clust2" class="cluster">
<title>cluster_ListOptionsFlow</title>
<polygon fill="none" stroke="black" points="325,-62 325,-137 509,-137 509,-62 325,-62"/>
<text text-anchor="middle" x="417" y="-121.8" font-family="Times,serif" font-size="14.00">ListOptionsFlow</text>
</g>
<g id="clust3" class="cluster">
<title>cluster_CuriosityFlow</title>
<polygon fill="none" stroke="black" points="8,-8 8,-220 298,-220 298,-8 8,-8"/>
<text text-anchor="middle" x="153" y="-204.8" font-family="Times,serif" font-size="14.00">CuriosityFlow</text>
</g>
<g id="clust4" class="cluster">
<title>cluster_RecipeInfoFlow</title>
<polygon fill="none" stroke="black" points="834,-145 834,-220 1602,-220 1602,-145 834,-145"/>
<text text-anchor="middle" x="1218" y="-204.8" font-family="Times,serif" font-size="14.00">RecipeInfoFlow</text>
</g>
<g id="clust5" class="cluster">
<title>cluster_SubstitutionFlow</title>
<polygon fill="none" stroke="black" points="1658,-145 1658,-220 1914,-220 1914,-145 1658,-145"/>
<text text-anchor="middle" x="1786" y="-204.8" font-family="Times,serif" font-size="14.00">SubstitutionFlow</text>
</g>
<!-- BackboneFlowDummyNode -->
<!-- CuriosityState -->
<g id="node12" class="node">
<title>CuriosityState</title>
<ellipse fill="none" stroke="black" cx="94" cy="-34" rx="70.23" ry="18"/>
<text text-anchor="middle" x="94" y="-30.6" font-family="Times,serif" font-size="13.00">CuriosityState</text>
</g>
<!-- BackboneFlowDummyNode&#45;&gt;CuriosityState -->
<g id="edge10" class="edge">
<title>BackboneFlowDummyNode&#45;&gt;CuriosityState</title>
<path fill="none" stroke="black" d="M797,-383.66C1164.84,-372.06 2163.8,-323.85 1995,-145 1931.52,-77.75 526.26,-44.01 173.68,-36.59"/>
<polygon fill="black" stroke="black" points="173.63,-33.09 163.56,-36.38 173.48,-40.09 173.63,-33.09"/>
<text text-anchor="middle" x="2028.5" y="-242.9" font-family="Times,serif" font-size="12.00">CuriosityIntent</text>
</g>
<!-- ListOptionsFlowDummyNode -->
<!-- CuriosityFlowDummyNode -->
<!-- RecipeInfoFlowDummyNode -->
<!-- SubstitutionFlowDummyNode -->
<!-- ChoiceState -->
<g id="node6" class="node">
<title>ChoiceState</title>
<ellipse fill="none" stroke="black" cx="409" cy="-388" rx="60.78" ry="18"/>
<text text-anchor="middle" x="409" y="-384.6" font-family="Times,serif" font-size="13.00">ChoiceState</text>
</g>
<!-- GreetState -->
<g id="node7" class="node">
<title>GreetState</title>
<ellipse fill="none" stroke="black" cx="416" cy="-246" rx="55.68" ry="18"/>
<text text-anchor="middle" x="416" y="-242.6" font-family="Times,serif" font-size="13.00">GreetState</text>
</g>
<!-- ChoiceState&#45;&gt;GreetState -->
<g id="edge1" class="edge">
<title>ChoiceState&#45;&gt;GreetState</title>
<path fill="none" stroke="black" d="M404.9,-370.01C403.72,-364.32 402.59,-357.92 402,-352 399.36,-325.38 404.24,-295.12 408.95,-273.95"/>
<polygon fill="black" stroke="black" points="412.39,-274.59 411.28,-264.05 405.58,-272.98 412.39,-274.59"/>
<text text-anchor="middle" x="435.5" y="-342.4" font-family="Times,serif" font-size="12.00">DenyIntent</text>
</g>
<!-- StepState -->
<g id="node8" class="node">
<title>StepState</title>
<ellipse fill="none" stroke="black" cx="599" cy="-301.5" rx="51.33" ry="18"/>
<text text-anchor="middle" x="599" y="-298.1" font-family="Times,serif" font-size="13.00">StepState</text>
</g>
<!-- ChoiceState&#45;&gt;StepState -->
<g id="edge3" class="edge">
<title>ChoiceState&#45;&gt;StepState</title>
<path fill="none" stroke="black" d="M469.49,-386.43C530.42,-384.42 618.41,-377.1 640,-352 647.88,-342.83 641.75,-332.55 632.04,-323.75"/>
<polygon fill="black" stroke="black" points="634.08,-320.9 624.1,-317.35 629.69,-326.35 634.08,-320.9"/>
<text text-anchor="middle" x="680.5" y="-342.4" font-family="Times,serif" font-size="12.00">AffirmIntent</text>
</g>
<!-- ListOptionsState -->
<g id="node10" class="node">
<title>ListOptionsState</title>
<ellipse fill="none" stroke="black" cx="414" cy="-88" rx="80.71" ry="18"/>
<text text-anchor="middle" x="414" y="-84.6" font-family="Times,serif" font-size="13.00">ListOptionsState</text>
</g>
<!-- ChoiceState&#45;&gt;ListOptionsState -->
<g id="edge7" class="edge">
<title>ChoiceState&#45;&gt;ListOptionsState</title>
<path fill="none" stroke="black" d="M465.28,-381.29C530.29,-374.61 640.44,-363.07 735,-352 980.62,-323.24 1040.55,-302.45 1287,-282 1489.13,-265.23 1542,-291.12 1743,-264 1828.47,-252.47 1878.37,-287.55 1932,-220 1952.73,-193.89 1955.5,-168.64 1932,-145 1917.97,-130.89 518.24,-142.11 499,-137 479.56,-131.83 459.87,-121.14 444.35,-111.15"/>
<polygon fill="black" stroke="black" points="445.98,-108.03 435.72,-105.4 442.1,-113.86 445.98,-108.03"/>
<text text-anchor="middle" x="1339.5" y="-298.4" font-family="Times,serif" font-size="12.00">AskOptionsIntent</text>
</g>
<!-- GreetState&#45;&gt;ChoiceState -->
<g id="edge2" class="edge">
<title>GreetState&#45;&gt;ChoiceState</title>
<path fill="none" stroke="black" d="M438.41,-262.63C464.94,-283.13 503.13,-320.21 483,-352 477.97,-359.94 470.61,-366.11 462.45,-370.9"/>
<polygon fill="black" stroke="black" points="460.66,-367.88 453.36,-375.57 463.85,-374.11 460.66,-367.88"/>
<text text-anchor="middle" x="528" y="-342.4" font-family="Times,serif" font-size="12.00">ChooseIntent</text>
</g>
<!-- GreetState&#45;&gt;ListOptionsState -->
<g id="edge6" class="edge">
<title>GreetState&#45;&gt;ListOptionsState</title>
<path fill="none" stroke="black" d="M415.78,-227.71C415.43,-200.77 414.76,-148.54 414.35,-116.42"/>
<polygon fill="black" stroke="black" points="417.85,-116.32 414.22,-106.37 410.85,-116.41 417.85,-116.32"/>
<text text-anchor="middle" x="468.5" y="-167.9" font-family="Times,serif" font-size="12.00">AskOptionsIntent</text>
</g>
<!-- StepState&#45;&gt;StepState -->
<g id="edge4" class="edge">
<title>StepState&#45;&gt;StepState</title>
<path fill="none" stroke="black" d="M646.08,-308.61C683.58,-311.41 722.17,-309.04 722.17,-301.5 722.17,-294.64 690.2,-292.06 656.18,-293.76"/>
<polygon fill="black" stroke="black" points="655.84,-290.27 646.08,-294.39 656.28,-297.26 655.84,-290.27"/>
<text text-anchor="middle" x="777.67" y="-311.4" font-family="Times,serif" font-size="12.00">PreviousIntent</text>
<text text-anchor="middle" x="777.67" y="-298.4" font-family="Times,serif" font-size="12.00"> NextIntent</text>
<text text-anchor="middle" x="777.67" y="-285.4" font-family="Times,serif" font-size="12.00"> SpecifyStepIntent</text>
</g>
<!-- CompleteState -->
<g id="node9" class="node">
<title>CompleteState</title>
<ellipse fill="none" stroke="black" cx="687" cy="-171" rx="71.26" ry="18"/>
<text text-anchor="middle" x="687" y="-167.6" font-family="Times,serif" font-size="13.00">CompleteState</text>
</g>
<!-- StepState&#45;&gt;CompleteState -->
<g id="edge5" class="edge">
<title>StepState&#45;&gt;CompleteState</title>
<path fill="none" stroke="black" d="M610.5,-283.7C625.59,-261.67 652.19,-222.83 669.71,-197.25"/>
<polygon fill="black" stroke="black" points="672.73,-199.03 675.49,-188.8 666.95,-195.08 672.73,-199.03"/>
<text text-anchor="middle" x="695.5" y="-249.4" font-family="Times,serif" font-size="12.00">LastStepEvent</text>
<text text-anchor="middle" x="695.5" y="-236.4" font-family="Times,serif" font-size="12.00"> GoodbyeIntent</text>
</g>
<!-- PromptCuriosityState -->
<g id="node11" class="node">
<title>PromptCuriosityState</title>
<ellipse fill="none" stroke="black" cx="116" cy="-171" rx="100.37" ry="18"/>
<text text-anchor="middle" x="116" y="-167.6" font-family="Times,serif" font-size="13.00">PromptCuriosityState</text>
</g>
<!-- StepState&#45;&gt;PromptCuriosityState -->
<g id="edge8" class="edge">
<title>StepState&#45;&gt;PromptCuriosityState</title>
<path fill="none" stroke="black" d="M547.76,-300.9C451.91,-300.85 249.7,-296.72 189,-264 161.8,-249.34 141.22,-219.79 128.95,-198.12"/>
<polygon fill="black" stroke="black" points="131.9,-196.21 124.06,-189.09 125.75,-199.55 131.9,-196.21"/>
<text text-anchor="middle" x="256.5" y="-242.9" font-family="Times,serif" font-size="12.00">PromptCuriosityEvent</text>
</g>
<!-- ListIngredientsState -->
<g id="node13" class="node">
<title>ListIngredientsState</title>
<ellipse fill="none" stroke="black" cx="1214" cy="-171" rx="96.03" ry="18"/>
<text text-anchor="middle" x="1214" y="-167.6" font-family="Times,serif" font-size="13.00">ListIngredientsState</text>
</g>
<!-- StepState&#45;&gt;ListIngredientsState -->
<g id="edge11" class="edge">
<title>StepState&#45;&gt;ListIngredientsState</title>
<path fill="none" stroke="black" d="M650.19,-299.89C723.22,-298.05 861.07,-290.93 975,-264 1046.24,-247.16 1124.71,-213.92 1171.64,-192.35"/>
<polygon fill="black" stroke="black" points="1173.28,-195.45 1180.88,-188.06 1170.33,-189.1 1173.28,-195.45"/>
<text text-anchor="middle" x="1145.5" y="-242.9" font-family="Times,serif" font-size="12.00">AskIngredientsIntent</text>
</g>
<!-- ListToolsState -->
<g id="node14" class="node">
<title>ListToolsState</title>
<ellipse fill="none" stroke="black" cx="1451" cy="-171" rx="69.47" ry="18"/>
<text text-anchor="middle" x="1451" y="-167.6" font-family="Times,serif" font-size="13.00">ListToolsState</text>
</g>
<!-- StepState&#45;&gt;ListToolsState -->
<g id="edge12" class="edge">
<title>StepState&#45;&gt;ListToolsState</title>
<path fill="none" stroke="black" d="M649.58,-298.42C788.83,-292.58 1171.21,-275.66 1227,-264 1295.82,-249.61 1370.31,-214.76 1413.7,-192.32"/>
<polygon fill="black" stroke="black" points="1415.5,-195.34 1422.73,-187.6 1412.25,-189.13 1415.5,-195.34"/>
<text text-anchor="middle" x="1378" y="-242.9" font-family="Times,serif" font-size="12.00">AskToolsIntent</text>
</g>
<!-- PresentNutritionState -->
<g id="node15" class="node">
<title>PresentNutritionState</title>
<ellipse fill="none" stroke="black" cx="944" cy="-171" rx="102.16" ry="18"/>
<text text-anchor="middle" x="944" y="-167.6" font-family="Times,serif" font-size="13.00">PresentNutritionState</text>
</g>
<!-- StepState&#45;&gt;PresentNutritionState -->
<g id="edge13" class="edge">
<title>StepState&#45;&gt;PresentNutritionState</title>
<path fill="none" stroke="black" d="M644.59,-293.19C677.29,-287.22 722.08,-277.55 760,-264 813.48,-244.88 871.52,-214.02 907.82,-193.37"/>
<polygon fill="black" stroke="black" points="909.63,-196.37 916.56,-188.36 906.14,-190.3 909.63,-196.37"/>
<text text-anchor="middle" x="900" y="-242.9" font-family="Times,serif" font-size="12.00">AskNutritionIntent</text>
</g>
<!-- SubstitutionState -->
<g id="node16" class="node">
<title>SubstitutionState</title>
<ellipse fill="none" stroke="black" cx="1749" cy="-171" rx="83.26" ry="18"/>
<text text-anchor="middle" x="1749" y="-167.6" font-family="Times,serif" font-size="13.00">SubstitutionState</text>
</g>
<!-- StepState&#45;&gt;SubstitutionState -->
<g id="edge14" class="edge">
<title>StepState&#45;&gt;SubstitutionState</title>
<path fill="none" stroke="black" d="M649.42,-298.38C829.56,-290.8 1431.15,-265.41 1441,-264 1522.1,-252.39 1541.7,-244.1 1620,-220 1647.72,-211.47 1678.16,-200.23 1702.5,-190.78"/>
<polygon fill="black" stroke="black" points="1703.82,-194.02 1711.85,-187.12 1701.27,-187.5 1703.82,-194.02"/>
<text text-anchor="middle" x="1659.5" y="-242.9" font-family="Times,serif" font-size="12.00">AskSubstitutionIntent</text>
</g>
<!-- PromptCuriosityState&#45;&gt;CuriosityState -->
<g id="edge9" class="edge">
<title>PromptCuriosityState&#45;&gt;CuriosityState</title>
<path fill="none" stroke="black" d="M113.21,-152.9C109.5,-130.1 102.88,-89.48 98.46,-62.39"/>
<polygon fill="black" stroke="black" points="101.9,-61.69 96.83,-52.39 94.99,-62.82 101.9,-61.69"/>
<text text-anchor="middle" x="147.5" y="-84.9" font-family="Times,serif" font-size="12.00">AffirmIntent</text>
</g>
</g>
</svg>
